Coordinates
version=1
nRows=8
nColumns=42
inDegrees=yes

Units are S.I. units (second, meters, Newtons, ...)
If the header above contains a line with 'inDegrees', this indicates whether rotational values are in degrees (yes) or radians (no).

endheader
time	pelvis_tilt	pelvis_list	pelvis_rotation	pelvis_tx	pelvis_ty	pelvis_tz	hip_flexion_r	hip_adduction_r	hip_rotation_r	knee_angle_r	knee_adduction_r	knee_angle_r_beta	ankle_angle_r	subtalar_angle_r	mtp_angle_r	hip_flexion_l	hip_adduction_l	hip_rotation_l	knee_angle_l	knee_adduction_l	knee_angle_l_beta	ankle_angle_l	subtalar_angle_l	mtp_angle_l	lumbar_extension	lumbar_bending	lumbar_rotation	arm_flex_r	arm_add_r	arm_rot_r	elbow_flex_r	pro_sup_r	wrist_flex_r	wrist_dev_r	arm_flex_l	arm_add_l	arm_rot_l	elbow_flex_l	pro_sup_l	wrist_flex_l	wrist_dev_l
     13.16500000	     -9.98720598	     -1.24194255	     -0.11720015	      0.76230300	      0.95480932	      0.47873924	     -2.47200552	      0.98023014	    -12.01705533	     17.09592636	      0.00000000	      0.29838020	     12.41655442	     14.60418252	      0.08462254	     32.75092930	     -2.54974704	    -21.48299314	      8.96131029	      0.00000000	      0.15640437	      8.98546579	     20.66249971	      0.08462254	      0.00000000	      0.00000000	      0.00000000	      0.00000000	     -8.05601283	      0.00000000	     74.73424857	     90.00000001	      0.00000000	      0.00000000	      0.00000000	     -8.05601283	      0.00000000	     74.73424857	     90.00000001	      0.00000000	      0.00000000
     13.17000000	     -9.80565194	     -1.42833637	     -0.15627067	      0.76248717	      0.95409276	      0.47815932	     -2.73940156	      1.10443673	    -11.95871182	     17.70347297	      0.00000000	      0.30898389	     12.37841857	     14.12815509	      0.08344851	     32.68417588	     -2.75647621	    -20.96984745	      9.93800240	      0.00000000	      0.17345086	      9.15441345	     19.91325888	      0.08344851	      0.00000000	      0.00000000	      0.00000000	      0.00000000	     -8.06396460	      0.00000000	     74.73484248	     90.00000001	      0.00000000	      0.00000000	      0.00000000	     -8.06396460	      0.00000000	     74.73484248	     90.00000001	      0.00000000	      0.00000000
     13.17500000	     -9.83909231	     -1.40002298	     -0.19774494	      0.76333487	      0.95337937	      0.47769137	     -2.91632193	      1.01797072	    -11.79777757	     18.05621867	      0.00000000	      0.31514047	     12.18262800	     13.98458714	      0.08301451	     32.59947609	     -2.70951025	    -20.52117688	     10.47957772	      0.00000000	      0.18290314	      8.94073439	     19.75508258	      0.08301451	      0.00000000	      0.00000000	      0.00000000	      0.00000000	     -8.06693067	      0.00000000	     74.73506383	     90.00000001	      0.00000000	      0.00000000	      0.00000000	     -8.06693067	      0.00000000	     74.73506383	     90.00000001	      0.00000000	      0.00000000
     13.18000000	     -9.99335084	     -1.56442695	     -0.15896416	      0.76380047	      0.95229797	      0.47691287	     -2.82805765	      1.11925387	    -11.69822881	     18.68049410	      0.00000000	      0.32603613	     12.05103722	     13.42999182	      0.08015760	     32.78506590	     -2.78651948	    -19.76111264	     11.20444580	      0.00000000	      0.19555447	      8.83987780	     18.99149596	      0.08015760	      0.00000000	      0.00000000	      0.00000000	      0.00000000	     -8.08681155	      0.00000000	     74.73654533	     90.00000001	      0.00000000	      0.00000000	      0.00000000	     -8.08681155	      0.00000000	     74.73654533	     90.00000001	      0.00000000	      0.00000000
     13.18500000	     -9.89923695	     -1.55164464	     -0.27984897	      0.76450391	      0.95169525	      0.47629580	     -3.01738003	      1.00438409	    -11.51894071	     19.25175744	      0.00000000	      0.33600655	     11.85240083	     13.16636386	      0.07938538	     32.55827745	     -2.76452223	    -19.44757143	     11.67855381	      0.00000000	      0.20382922	      8.58034553	     18.77373793	      0.07938538	      0.00000000	      0.00000000	      0.00000000	      0.00000000	     -8.09229775	      0.00000000	     74.73695343	     90.00000001	      0.00000000	      0.00000000	      0.00000000	     -8.09229775	      0.00000000	     74.73695343	     90.00000001	      0.00000000	      0.00000000
     13.19000000	     -9.95303302	     -1.47462126	     -0.32366083	      0.76557692	      0.95102395	      0.47572284	     -3.17480078	      0.85471338	    -11.27428404	     19.58649322	      0.00000000	      0.34184880	     11.62501481	     13.10289560	      0.07917511	     32.41685011	     -2.63045338	    -19.11975853	     11.99150270	      0.00000000	      0.20929120	      8.32721622	     18.77155684	      0.07917511	      0.00000000	      0.00000000	      0.00000000	      0.00000000	     -8.09380200	      0.00000000	     74.73706524	     90.00000001	      0.00000000	      0.00000000	      0.00000000	     -8.09380200	      0.00000000	     74.73706524	     90.00000001	      0.00000000	      0.00000000
     13.19500000	    -10.00628238	     -1.33928098	     -0.39669450	      0.76615375	      0.95018703	      0.47510264	     -2.96597678	      0.55462604	    -11.31894954	     20.69671876	      0.00000000	      0.36122589	     11.61213540	     12.55488243	      0.07663935	     32.31780984	     -2.41044336	    -18.73992368	     12.25543459	      0.00000000	      0.21389768	      7.69479906	     17.95989713	      0.07663935	      0.00000000	      0.00000000	      0.00000000	      0.00000000	     -8.11218915	      0.00000000	     74.73843069	     90.00000001	      0.00000000	      0.00000000	      0.00000000	     -8.11218915	      0.00000000	     74.73843069	     90.00000001	      0.00000000	      0.00000000
     13.20000000	     -9.93454116	     -1.32400134	     -0.48064439	      0.76687924	      0.94972564	      0.47447889	     -3.04043774	      0.42021610	    -11.21802757	     21.37226276	      0.00000000	      0.37301635	     11.21825190	     12.29996591	      0.07593311	     32.09485650	     -2.36027236	    -18.52571709	     12.54338771	      0.00000000	      0.21892341	      6.97193239	     17.87878724	      0.07593311	      0.00000000	      0.00000000	      0.00000000	      0.00000000	     -8.11741759	      0.00000000	     74.73881825	     90.00000001	      0.00000000	      0.00000000	      0.00000000	     -8.11741759	      0.00000000	     74.73881825	     90.00000001	      0.00000000	      0.00000000
